<svg xmlns="http://www.w3.org/2000/svg" width="436" height="512" fill="none"><g fill="#000" clip-path="url(#a)"><path d="M224.345 413.776a637.044 637.044 0 0 0 5.443-5.042l-5.443 5.042ZM425.37 19.949c-53.02-61.652-162.632 35.543-208.454 76.268a276.002 276.002 0 0 1 11.503 3.543C365.732-23.025 487.06-26.414 378.318 185.763a35.211 35.211 0 0 1 15.787 8.876c22.486-44.838 60.523-127.515 31.265-174.69Z"/><path d="M224.344 413.777a622.6 622.6 0 0 0 5.444-5.043l-5.444 5.043Zm-87.541-54.713a24.104 24.104 0 0 1-5.777 6.913c21.149 15.807 44.222 29.063 68.649 39.034a689.477 689.477 0 0 0 5.447-5.086c-24.75-10.35-48.043-24.624-68.319-40.861Zm275.107-45.929c-1.46-23.639-8.141-46.216-18.48-67.245a35.22 35.22 0 0 1-12.12 7.324c57.289 112.983-32.701 187.899-144.056 157.6a798.142 798.142 0 0 1-5.447 5.102c79.745 26.163 185.587-2.691 180.103-102.781ZM76.658 291.874a618.03 618.03 0 0 0-7.19 12.304c7.965 11.008 16.807 21.364 26.104 30.879a24.02 24.02 0 0 1 7.675-7.795c-9.77-10.941-18.804-22.808-26.589-35.388ZM353.542 188.534a35.474 35.474 0 0 0-11.437 9.35c-41.065-42.801-93.432-74.787-151.962-84.904C83.309 94.512 16.223 168.685 65.001 270.422a804.76 804.76 0 0 0-8.523 13.848c-55.612-86.908-12.737-194.536 97-190.747 76.328 1.224 148.934 39.88 200.064 95.011Z"/><path d="M359.452 253.74c-55.3 84.225-129.877 166.799-214.456 222.126-31.049 18.813-89.359 53.764-127.267 25.502-75.345-84.614 109.828-316.788 174.712-381.295 3.817.68 7.634 1.477 11.452 2.389C125.85 199.306 43.881 306.215 15.761 416.463c-5.069 22.698-10.075 58.954 9.639 75.463 21.693 16.105 54.8 2.29 75.164-7.159 103.002-55.698 176.878-144.612 243.09-240.954a35.24 35.24 0 0 0 15.798 9.927ZM398.209 219.946c.201 14.94-12.128 27.935-26.938 28.615-.099-.18-.198-.36-.301-.54-.121.191-.242.382-.364.57-23.737 1.121-38.349-26.94-23.983-45.779 16.173-21.959 51.725-10.198 51.586 17.134Z"/><path d="m371.271 248.561-.665.03c.122-.188.243-.379.364-.57.103.18.202.36.301.54ZM133.198 347.476c-.561 22.764-33.926 22.793-34.502 0 .565-22.764 33.923-22.794 34.502 0Z"/></g><defs><clipPath id="a"><path fill="#fff" d="M0 0h436v512H0z"/></clipPath></defs></svg>